<svg width="20" height="19" viewBox="0 0 20 19" fill="none" xmlns="http://www.w3.org/2000/svg">
<path d="M-6.01032e-07 6.52534L-2.73196e-07 13.2571C-1.22337e-07 16.3549 2.79875 18.8669 6.25 18.8669L13.75 18.8669C17.2012 18.8669 20 16.3549 20 13.2571L20 6.52534C20 3.42759 17.2012 0.915517 13.75 0.915517L6.25 0.915518C2.79875 0.915518 -7.51891e-07 3.4276 -6.01032e-07 6.52534ZM13.75 2.59846C16.1625 2.59846 18.125 4.35995 18.125 6.52534L18.125 13.2571C18.125 15.4225 16.1625 17.184 13.75 17.184L6.25 17.184C3.8375 17.184 1.875 15.4225 1.875 13.2571L1.875 6.52534C1.875 4.35995 3.8375 2.59846 6.25 2.59846L13.75 2.59846Z" fill="black"/>
<path d="M5 9.89124C5 12.3697 7.23875 14.3791 10 14.3791C12.7613 14.3791 15 12.3697 15 9.89124C15 7.41282 12.7612 5.40338 10 5.40338C7.23875 5.40338 5 7.41282 5 9.89124ZM13.125 9.89124C13.125 11.4373 11.7225 12.6961 10 12.6961C8.27625 12.6961 6.875 11.4373 6.875 9.89124C6.875 8.34517 8.27625 7.08633 10 7.08633C11.7225 7.08633 13.125 8.34517 13.125 9.89124Z" fill="black"/>
<path d="M5.29123 5.0668C5.29123 4.73653 4.99295 4.46879 4.62499 4.46879C4.25703 4.46879 3.95874 4.73653 3.95874 5.0668C3.95874 5.39707 4.25703 5.6648 4.62499 5.6648C4.99295 5.6648 5.29123 5.39707 5.29123 5.0668Z" fill="black"/>
</svg>
