<svg width="20" height="19" viewBox="0 0 20 19" fill="none" xmlns="http://www.w3.org/2000/svg">
<path d="M-7.46167e-07 3.13014L-1.28061e-07 15.8224C-5.74539e-08 17.2722 1.31439 18.452 2.92969 18.452L17.0703 18.452C18.6856 18.452 20 17.2722 20 15.8224L20 10.5281L12.9297 10.5281L12.9297 12.6318L9.41406 12.6318L9.41406 10.5281L7.03125 10.5281C5.09262 10.5281 3.51562 9.11263 3.51562 7.37257L3.51562 4.18198L7.03125 4.18198L7.03125 7.37257L9.41406 7.37257L9.41406 4.18198L12.9297 4.7079L12.9297 7.37257L20 7.37257L20 3.13014C20 1.6803 18.6856 0.500539 17.0703 0.500539L2.92969 0.50054C1.31439 0.50054 -8.16774e-07 1.6803 -7.46167e-07 3.13014Z" fill="black"/>
</svg>
