<svg width="19" height="19" viewBox="0 0 19 19" fill="none" xmlns="http://www.w3.org/2000/svg">
<path d="M-4.37114e-07 9.3058C-1.95608e-07 14.2649 4.36167 18.2815 9.74107 18.2815C14.0457 18.2815 17.6962 15.71 18.9832 12.1444C19.0749 11.6956 18.7734 11.531 18.5148 11.531C18.2835 11.531 17.6706 11.5385 16.8585 11.5422C17.4459 14.039 15.5517 14.5656 15.5517 14.5656C14.4274 14.974 14.1267 15.5641 14.1267 15.5641C13.5228 16.3772 13.5352 15.5013 13.5352 15.5013C13.603 14.6 14.5389 14.1265 14.5389 14.1265C16.0283 13.3262 15.5979 12.0254 15.3493 11.5123C14.719 11.4315 14.2903 11.2004 14.0466 10.9439C13.8029 12.9372 12.9652 15.0323 9.23304 15.0323C8.16988 15.0323 7.30085 14.6845 6.61933 14.1086C6.37316 14.2095 5.3827 14.5125 4.04116 14.03C4.04116 14.03 3.78012 13.2783 5.03988 11.5617C4.82345 10.8436 4.71606 10.0807 4.7111 9.31776C4.71606 8.55483 4.82345 7.79189 5.03988 7.07384C3.78012 5.36845 4.04116 4.61674 4.04116 4.61674C5.3827 4.13429 6.37316 4.43722 6.61933 4.52698C7.30085 3.95478 8.16988 3.60697 9.23304 3.60697C12.9752 3.60697 13.7987 5.70504 14.0383 7.70214C14.3307 7.38799 14.928 7.09627 15.8408 7.09627C17.1444 7.09627 18.1918 7.10749 18.5082 7.10749C18.7635 7.10749 19.0683 6.95042 18.9708 6.49041C17.692 2.89938 14.0391 0.330084 9.74107 0.330084C4.36167 0.330084 -6.7851e-07 4.34896 -4.37114e-07 9.3058Z" fill="#212121"/>
</svg>
